<svg width="16" height="20" viewBox="0 0 16 20" fill="none" xmlns="http://www.w3.org/2000/svg">
<path d="M13 7V5C13 3.67392 12.4732 2.40215 11.5355 1.46447C10.5979 0.526784 9.32608 0 8 0C6.67392 0 5.40215 0.526784 4.46447 1.46447C3.52678 2.40215 3 3.67392 3 5V7C2.20435 7 1.44129 7.31607 0.87868 7.87868C0.316071 8.44129 0 9.20435 0 10V17C0 17.7956 0.316071 18.5587 0.87868 19.1213C1.44129 19.6839 2.20435 20 3 20H13C13.7956 20 14.5587 19.6839 15.1213 19.1213C15.6839 18.5587 16 17.7956 16 17V10C16 9.20435 15.6839 8.44129 15.1213 7.87868C14.5587 7.31607 13.7956 7 13 7ZM5 5C5 4.20435 5.31607 3.44129 5.87868 2.87868C6.44129 2.31607 7.20435 2 8 2C8.79565 2 9.55871 2.31607 10.1213 2.87868C10.6839 3.44129 11 4.20435 11 5V7H5V5ZM14 17C14 17.2652 13.8946 17.5196 13.7071 17.7071C13.5196 17.8946 13.2652 18 13 18H3C2.73478 18 2.48043 17.8946 2.29289 17.7071C2.10536 17.5196 2 17.2652 2 17V10C2 9.73478 2.10536 9.48043 2.29289 9.29289C2.48043 9.10536 2.73478 9 3 9H13C13.2652 9 13.5196 9.10536 13.7071 9.29289C13.8946 9.48043 14 9.73478 14 10V17Z" fill="white"/>
<path d="M7.80958 14.4111L7.03669 13.4383C7.03666 13.4382 7.03662 13.4382 7.03659 13.4381L7.80958 14.4111ZM7.80958 14.4111L9.92938 11.1658L9.92952 11.1656C10.0215 11.0255 10.1668 10.9274 10.3325 10.8908C10.498 10.8542 10.6723 10.8816 10.8175 10.9677C11.121 11.1477 11.2188 11.534 11.0254 11.8295L8.40906 15.8331C8.40903 15.8332 8.409 15.8332 8.40897 15.8333C8.35299 15.9193 8.27625 15.9904 8.18587 16.0408C8.09618 16.0909 7.9955 16.1193 7.89241 16.1241C7.87994 16.125 7.86897 16.125 7.86185 16.125H7.86069C7.66121 16.125 7.47017 16.0363 7.34656 15.8802L7.80958 14.4111ZM6.00798 14.194L7.34643 15.88L6.00798 14.194Z" fill="white" stroke="white" stroke-width="0.25"/>
</svg>
