<svg width="18" height="15" viewBox="0 0 18 15" fill="none" xmlns="http://www.w3.org/2000/svg">
<path fill-rule="evenodd" clip-rule="evenodd" d="M18 2.45455V12.2727C18 13.6246 16.8973 14.7273 15.5455 14.7273H2.45455C1.10268 14.7273 0 13.6246 0 12.2727V2.45455C0 1.09894 1.09894 0 2.45455 0H15.5455C16.9011 0 18 1.09894 18 2.45455ZM1.72357 2.0896C1.85888 1.82203 2.13712 1.63636 2.45455 1.63636H15.5455C15.8629 1.63636 16.1411 1.82203 16.2764 2.0896L9 7.18306L1.72357 2.0896ZM1.63636 4.02599L8.06163 8.52365C8.62503 8.9181 9.37497 8.9181 9.93837 8.52365L16.3636 4.02599V12.2727C16.3636 12.7208 15.9936 13.0909 15.5455 13.0909H2.45455C2.00641 13.0909 1.63636 12.7208 1.63636 12.2727V4.02599Z" fill="#5F5F5F"/>
</svg>
