<svg width="21" height="20" viewBox="0 0 21 20" fill="none" xmlns="http://www.w3.org/2000/svg">
<path d="M3.84017 10C3.84017 9.73478 3.73408 9.48043 3.54524 9.29289C3.3564 9.10536 3.10028 9 2.83322 9H1.82628C1.55922 9 1.3031 9.10536 1.11426 9.29289C0.925424 9.48043 0.819336 9.73478 0.819336 10C0.819336 10.2652 0.925424 10.5196 1.11426 10.7071C1.3031 10.8946 1.55922 11 1.82628 11H2.83322C3.10028 11 3.3564 10.8946 3.54524 10.7071C3.73408 10.5196 3.84017 10.2652 3.84017 10ZM4.48461 15L3.76968 15.71C3.58214 15.8974 3.47687 16.1508 3.47687 16.415C3.47687 16.6792 3.58214 16.9326 3.76968 17.12C3.95835 17.3063 4.21356 17.4108 4.47958 17.4108C4.7456 17.4108 5.00081 17.3063 5.18947 17.12L5.90441 16.41C6.06937 16.2187 6.15557 15.9726 6.14578 15.7209C6.13599 15.4693 6.03094 15.2305 5.8516 15.0524C5.67227 14.8743 5.43188 14.77 5.17845 14.7603C4.92503 14.7506 4.67724 14.8362 4.48461 15ZM10.8888 3C11.1558 3 11.412 2.89464 11.6008 2.70711C11.7896 2.51957 11.8957 2.26522 11.8957 2V1C11.8957 0.734784 11.7896 0.48043 11.6008 0.292893C11.412 0.105357 11.1558 0 10.8888 0C10.6217 0 10.3656 0.105357 10.1768 0.292893C9.98792 0.48043 9.88184 0.734784 9.88184 1V2C9.88184 2.26522 9.98792 2.51957 10.1768 2.70711C10.3656 2.89464 10.6217 3 10.8888 3ZM16.5881 5.34C16.8522 5.3389 17.1054 5.23474 17.2929 5.05L18.0079 4.34C18.1133 4.25035 18.1989 4.14003 18.2593 4.01597C18.3198 3.89191 18.3537 3.75677 18.3591 3.61905C18.3645 3.48133 18.3411 3.344 18.2905 3.21568C18.2398 3.08735 18.1631 2.9708 18.0649 2.87335C17.9668 2.77589 17.8494 2.69964 17.7202 2.64936C17.591 2.59909 17.4527 2.57588 17.314 2.5812C17.1754 2.58652 17.0393 2.62025 16.9144 2.68027C16.7894 2.7403 16.6784 2.82532 16.5881 2.93L15.9235 3.64C15.736 3.82736 15.6307 4.08081 15.6307 4.345C15.6307 4.60919 15.736 4.86264 15.9235 5.05C16.101 5.22536 16.338 5.32875 16.5881 5.34ZM4.50475 5.05C4.69231 5.23474 4.94545 5.3389 5.20961 5.34C5.34213 5.34076 5.4735 5.31554 5.59619 5.26577C5.71887 5.21601 5.83046 5.14268 5.92454 5.05C6.11209 4.86264 6.21736 4.60919 6.21736 4.345C6.21736 4.08081 6.11209 3.82736 5.92454 3.64L5.20961 2.93C5.11639 2.8361 5.00545 2.76136 4.88314 2.71005C4.76083 2.65873 4.62954 2.63184 4.49677 2.63091C4.36399 2.62998 4.23233 2.65503 4.10931 2.70463C3.98628 2.75424 3.8743 2.82742 3.77975 2.92C3.68521 3.01258 3.60995 3.12275 3.55827 3.24422C3.5066 3.36568 3.47952 3.49607 3.47858 3.62793C3.4767 3.89423 3.58141 4.15037 3.76968 4.34L4.50475 5.05ZM19.9513 9H18.9443C18.6773 9 18.4212 9.10536 18.2323 9.29289C18.0435 9.48043 17.9374 9.73478 17.9374 10C17.9374 10.2652 18.0435 10.5196 18.2323 10.7071C18.4212 10.8946 18.6773 11 18.9443 11H19.9513C20.2183 11 20.4745 10.8946 20.6633 10.7071C20.8521 10.5196 20.9582 10.2652 20.9582 10C20.9582 9.73478 20.8521 9.48043 20.6633 9.29289C20.4745 9.10536 20.2183 9 19.9513 9ZM17.2929 15C17.1016 14.8943 16.8809 14.8534 16.6641 14.8835C16.4473 14.9136 16.2463 15.0131 16.0915 15.1668C15.9367 15.3205 15.8365 15.5202 15.8062 15.7355C15.7759 15.9508 15.8171 16.17 15.9235 16.36L16.6384 17.07C16.8271 17.2563 17.0823 17.3608 17.3483 17.3608C17.6143 17.3608 17.8696 17.2563 18.0582 17.07C18.2458 16.8826 18.351 16.6292 18.351 16.365C18.351 16.1008 18.2458 15.8474 18.0582 15.66L17.2929 15ZM10.8888 4.5C9.79343 4.5 8.72268 4.82257 7.81192 5.42692C6.90117 6.03126 6.19133 6.89025 5.77216 7.89524C5.35298 8.90023 5.24331 10.0061 5.457 11.073C5.67069 12.1399 6.19815 13.1199 6.97268 13.8891C7.74722 14.6583 8.73403 15.1821 9.80833 15.3943C10.8826 15.6065 11.9962 15.4976 13.0082 15.0813C14.0201 14.6651 14.8851 13.9601 15.4936 13.0556C16.1022 12.1512 16.427 11.0878 16.427 10C16.4243 8.54212 15.84 7.14471 14.8019 6.11383C13.7639 5.08295 12.3568 4.50264 10.8888 4.5ZM10.8888 13.5C10.1917 13.5 9.51035 13.2947 8.93078 12.9101C8.35121 12.5256 7.89949 11.9789 7.63275 11.3394C7.366 10.6999 7.29621 9.99612 7.43219 9.31718C7.56818 8.63825 7.90384 8.01461 8.39672 7.52513C8.8896 7.03564 9.51757 6.7023 10.2012 6.56725C10.8849 6.4322 11.5935 6.50151 12.2375 6.76642C12.8815 7.03133 13.4319 7.47993 13.8191 8.0555C14.2064 8.63108 14.4131 9.30777 14.4131 10C14.4131 10.9283 14.0418 11.8185 13.3808 12.4749C12.7199 13.1313 11.8235 13.5 10.8888 13.5ZM10.8888 17C10.6217 17 10.3656 17.1054 10.1768 17.2929C9.98792 17.4804 9.88184 17.7348 9.88184 18V19C9.88184 19.2652 9.98792 19.5196 10.1768 19.7071C10.3656 19.8946 10.6217 20 10.8888 20C11.1558 20 11.412 19.8946 11.6008 19.7071C11.7896 19.5196 11.8957 19.2652 11.8957 19V18C11.8957 17.7348 11.7896 17.4804 11.6008 17.2929C11.412 17.1054 11.1558 17 10.8888 17Z" fill="#F1F1F1"/>
</svg>
